<svg xmlns="http://www.w3.org/2000/svg" xmlns:xlink="http://www.w3.org/1999/xlink" viewBox="0,0,256,256" width="100px" height="100px" fill-rule="nonzero"><g fill="none" fill-rule="nonzero" stroke="none" stroke-width="1" stroke-linecap="butt" stroke-linejoin="miter" stroke-miterlimit="10" stroke-dasharray="" stroke-dashoffset="0" font-family="none" font-weight="none" font-size="none" text-anchor="none" style="mix-blend-mode: normal"><g transform="scale(2.56,2.56)"><path d="M71.546,52.365h-10.03c-0.276,0 -0.5,-0.224 -0.5,-0.5c0,-0.276 0.224,-0.5 0.5,-0.5h10.03c0.276,0 0.5,0.224 0.5,0.5c0,0.276 -0.223,0.5 -0.5,0.5zM74.428,52.365h-1.446c-0.276,0 -0.5,-0.224 -0.5,-0.5c0,-0.276 0.224,-0.5 0.5,-0.5h1.446c0.276,0 0.5,0.224 0.5,0.5c0,0.276 -0.224,0.5 -0.5,0.5zM78.482,52.365h-2.546c-0.276,0 -0.5,-0.224 -0.5,-0.5c0,-0.276 0.224,-0.5 0.5,-0.5h2.546c0.276,0 0.5,0.224 0.5,0.5c0,0.276 -0.223,0.5 -0.5,0.5zM76.456,48.635h-9.616c-0.276,0 -0.5,-0.224 -0.5,-0.5c0,-0.276 0.224,-0.5 0.5,-0.5h9.617c0.276,0 0.5,0.224 0.5,0.5c0,0.276 -0.224,0.5 -0.501,0.5zM65.108,48.635h-0.58c-0.276,0 -0.5,-0.224 -0.5,-0.5c0,-0.276 0.224,-0.5 0.5,-0.5h0.58c0.276,0 0.5,0.224 0.5,0.5c0,0.276 -0.223,0.5 -0.5,0.5zM62.732,48.635h-1.457c-0.276,0 -0.5,-0.224 -0.5,-0.5c0,-0.276 0.224,-0.5 0.5,-0.5h1.457c0.276,0 0.5,0.224 0.5,0.5c0,0.276 -0.224,0.5 -0.5,0.5zM73.893,50.5h-5.028c-0.276,0 -0.5,-0.224 -0.5,-0.5c0,-0.276 0.224,-0.5 0.5,-0.5h5.028c0.276,0 0.5,0.224 0.5,0.5c0,0.276 -0.223,0.5 -0.5,0.5z" fill="#ffffff"></path><path d="M73.893,48.635h-1.257c-0.276,0 -0.5,-0.224 -0.5,-0.5c0,-0.276 0.224,-0.5 0.5,-0.5h1.257c0.276,0 0.5,0.224 0.5,0.5c0,0.276 -0.223,0.5 -0.5,0.5zM67.411,50.5h-1.759c-0.276,0 -0.5,-0.224 -0.5,-0.5c0,-0.276 0.224,-0.5 0.5,-0.5h1.759c0.276,0 0.5,0.224 0.5,0.5c0,0.276 -0.224,0.5 -0.5,0.5z" fill="#ffffff"></path><path d="M88.662,56.831c0.3,-0.616 0.566,-1.264 0.796,-1.943c2.633,-7.77 -1.349,-17.078 -9.733,-19.325c-0.906,-11.384 -8.906,-19.193 -17.941,-20.526c-10.341,-1.525 -19.814,5.044 -22.966,15.485c-3.799,-1.346 -7.501,-1.182 -10.99,0.857c-1.583,0.732 -3.031,1.812 -4.33,3.233c-1.907,2.086 -3.147,4.719 -3.652,7.495c-0.748,0.118 -1.483,0.236 -2.176,0.484c-4.04,1.449 -6.589,4.431 -7.288,8.923c-0.435,2.797 0.443,5.587 0.933,6.714c1.935,4.455 6.422,6.98 10.981,6.312c0.227,-0.033 0.557,0.069 0.752,0.233c0.241,7.12 3.698,13.417 8.884,17.014c8.321,5.772 19.027,3.994 25.781,-3.921c2.894,2.96 6.338,4.398 10.384,3.876c4.023,-0.519 7.147,-2.739 9.426,-6.349c1.053,0.283 2.051,0.691 3.083,0.804c4.042,0.442 7.324,-1.165 9.732,-4.8c0.922,-1.391 1.793,-3.194 1.793,-6.354c0.001,-3.255 -1.292,-6.223 -3.469,-8.212z" fill="#ffd000"></path><path d="M18.327,48.866h-10.031c-0.276,0 -0.5,-0.224 -0.5,-0.5c0,-0.276 0.224,-0.5 0.5,-0.5h10.031c0.276,0 0.5,0.224 0.5,0.5c0,0.276 -0.224,0.5 -0.5,0.5zM21.208,48.866h-1.446c-0.276,0 -0.5,-0.224 -0.5,-0.5c0,-0.276 0.224,-0.5 0.5,-0.5h1.446c0.276,0 0.5,0.224 0.5,0.5c0,0.276 -0.224,0.5 -0.5,0.5zM25.263,48.866h-2.546c-0.276,0 -0.5,-0.224 -0.5,-0.5c0,-0.276 0.224,-0.5 0.5,-0.5h2.546c0.276,0 0.5,0.224 0.5,0.5c0,0.276 -0.224,0.5 -0.5,0.5zM25.263,50.731h-9.616c-0.276,0 -0.5,-0.224 -0.5,-0.5c0,-0.276 0.224,-0.5 0.5,-0.5h9.616c0.276,0 0.5,0.224 0.5,0.5c0,0.276 -0.224,0.5 -0.5,0.5zM13.915,50.731h-0.58c-0.276,0 -0.5,-0.224 -0.5,-0.5c0,-0.276 0.224,-0.5 0.5,-0.5h0.58c0.276,0 0.5,0.224 0.5,0.5c0,0.276 -0.224,0.5 -0.5,0.5zM11.538,50.731h-1.456c-0.276,0 -0.5,-0.224 -0.5,-0.5c0,-0.276 0.224,-0.5 0.5,-0.5h1.456c0.276,0 0.5,0.224 0.5,0.5c0,0.276 -0.224,0.5 -0.5,0.5zM20.674,47.002h-5.027c-0.276,0 -0.5,-0.224 -0.5,-0.5c0,-0.276 0.224,-0.5 0.5,-0.5h5.027c0.276,0 0.5,0.224 0.5,0.5c0,0.276 -0.224,0.5 -0.5,0.5zM20.674,45.137h-1.257c-0.276,0 -0.5,-0.224 -0.5,-0.5c0,-0.276 0.224,-0.5 0.5,-0.5h1.257c0.276,0 0.5,0.224 0.5,0.5c0,0.276 -0.224,0.5 -0.5,0.5zM17.405,52.596h-1.759c-0.276,0 -0.5,-0.224 -0.5,-0.5c0,-0.276 0.224,-0.5 0.5,-0.5h1.759c0.276,0 0.5,0.224 0.5,0.5c0,0.276 -0.223,0.5 -0.5,0.5z" fill="#ffffff"></path><path d="M30.765,77.203c0,0 11.691,0 11.762,0c2.7,0 4.888,-2.189 4.888,-4.889c0,-2.355 -1.666,-4.321 -3.884,-4.784c0.026,-0.206 0.043,-0.415 0.043,-0.628c0,-2.796 -2.267,-5.063 -5.063,-5.063c-1.651,0 -3.113,0.794 -4.037,2.017c-0.236,-3.113 -3.017,-5.514 -6.27,-5.116c-2.379,0.291 -4.346,2.13 -4.784,4.486c-0.14,0.756 -0.126,1.489 0.014,2.177c-0.638,-0.687 -1.546,-1.119 -2.557,-1.119c-1.85,0 -3.361,1.441 -3.48,3.261c-0.84,-0.186 -1.754,-0.174 -2.717,0.188c-1.84,0.691 -3.15,2.423 -3.227,4.387c-0.109,2.789 2.12,5.085 4.885,5.085c0.21,0 0.948,0 1.118,0h10.151" fill="#fdfcef"></path><path d="M42.527,77.703h-11.762c-0.276,0 -0.5,-0.224 -0.5,-0.5c0,-0.276 0.224,-0.5 0.5,-0.5h11.762c2.419,0 4.388,-1.969 4.388,-4.389c0,-2.067 -1.466,-3.873 -3.486,-4.295c-0.255,-0.053 -0.426,-0.292 -0.394,-0.55c0.023,-0.186 0.039,-0.375 0.039,-0.567c0,-2.516 -2.047,-4.563 -4.563,-4.563c-1.438,0 -2.765,0.663 -3.638,1.818c-0.125,0.166 -0.337,0.239 -0.54,0.178c-0.199,-0.059 -0.342,-0.234 -0.357,-0.441c-0.104,-1.377 -0.779,-2.671 -1.851,-3.549c-1.082,-0.887 -2.452,-1.281 -3.86,-1.109c-2.166,0.265 -3.956,1.943 -4.353,4.081c-0.125,0.667 -0.12,1.335 0.012,1.986c0.045,0.219 -0.062,0.442 -0.261,0.544c-0.199,0.102 -0.442,0.06 -0.595,-0.104c-0.574,-0.619 -1.352,-0.959 -2.19,-0.959c-1.569,0 -2.878,1.227 -2.981,2.793c-0.01,0.146 -0.082,0.28 -0.199,0.367c-0.117,0.087 -0.268,0.119 -0.408,0.088c-0.84,-0.186 -1.637,-0.131 -2.433,0.167c-1.669,0.626 -2.836,2.209 -2.903,3.938c-0.047,1.207 0.387,2.35 1.222,3.218c0.835,0.868 1.958,1.347 3.163,1.347h11.27c0.276,0 0.5,0.224 0.5,0.5c0,0.276 -0.224,0.5 -0.5,0.5h-11.27c-1.479,0 -2.858,-0.587 -3.884,-1.654c-1.025,-1.066 -1.558,-2.469 -1.5,-3.95c0.083,-2.126 1.51,-4.069 3.551,-4.836c0.8,-0.3 1.628,-0.4 2.468,-0.298c0.376,-1.823 1.997,-3.182 3.905,-3.182c0.684,0 1.354,0.179 1.944,0.509c0,-0.385 0.035,-0.772 0.107,-1.159c0.476,-2.562 2.62,-4.573 5.215,-4.891c1.677,-0.208 3.319,0.266 4.615,1.328c1.004,0.823 1.716,1.951 2.038,3.193c1.012,-0.916 2.319,-1.425 3.714,-1.425c3.067,0 5.563,2.496 5.563,5.563c0,0.083 -0.002,0.166 -0.007,0.249c2.254,0.672 3.848,2.777 3.848,5.164c-0.001,2.973 -2.418,5.39 -5.389,5.39z" fill="#472b29"></path><path d="M27.932,66.434c-1.808,-0.119 -3.365,1.13 -3.476,2.789c-0.014,0.206 -0.005,0.409 0.025,0.606c-0.349,-0.394 -0.865,-0.661 -1.458,-0.7c-1.085,-0.071 -2.022,0.645 -2.158,1.62c-0.197,-0.054 -0.403,-0.09 -0.616,-0.104c-1.582,-0.104 -2.944,0.989 -3.042,2.441" fill="#fdfcef"></path><path d="M17.208,73.336c-0.006,0 -0.012,0 -0.017,0c-0.138,-0.009 -0.242,-0.128 -0.233,-0.266c0.106,-1.587 1.592,-2.785 3.307,-2.674c0.136,0.009 0.272,0.027 0.409,0.053c0.273,-0.968 1.258,-1.64 2.365,-1.568c0.425,0.028 0.824,0.161 1.164,0.382c0,-0.019 0.002,-0.037 0.003,-0.055c0.122,-1.793 1.799,-3.141 3.743,-3.022c0.138,0.009 0.242,0.128 0.233,0.266c-0.009,0.138 -0.133,0.248 -0.266,0.233c-1.652,-0.111 -3.108,1.037 -3.21,2.557c-0.012,0.184 -0.004,0.37 0.023,0.552c0.017,0.109 -0.041,0.217 -0.141,0.264c-0.101,0.047 -0.22,0.022 -0.293,-0.061c-0.317,-0.358 -0.787,-0.583 -1.288,-0.616c-0.935,-0.061 -1.775,0.555 -1.893,1.405c-0.01,0.071 -0.05,0.134 -0.11,0.174c-0.06,0.04 -0.133,0.051 -0.204,0.033c-0.188,-0.051 -0.379,-0.084 -0.567,-0.096c-1.432,-0.105 -2.687,0.896 -2.775,2.208c-0.01,0.13 -0.12,0.231 -0.25,0.231z" fill="#472b29"></path><path d="M44.506,68.103c-1.699,-0.801 -3.664,-0.234 -4.389,1.267c-0.09,0.186 -0.157,0.379 -0.201,0.574" fill="#fdfcef"></path><path d="M39.916,70.193c-0.018,0 -0.037,-0.002 -0.056,-0.006c-0.135,-0.031 -0.219,-0.165 -0.188,-0.299c0.049,-0.216 0.123,-0.427 0.22,-0.626c0.783,-1.621 2.901,-2.243 4.72,-1.384c0.125,0.059 0.179,0.208 0.12,0.333c-0.059,0.125 -0.21,0.177 -0.333,0.12c-1.576,-0.743 -3.394,-0.226 -4.057,1.149c-0.08,0.166 -0.142,0.34 -0.183,0.52c-0.025,0.115 -0.128,0.193 -0.243,0.193z" fill="#472b29"></path><path d="M63.783,74.774h-27.649c-5.5,0 -10,-4.5 -10,-10v-27.649c0,-5.5 4.5,-10 10,-10h27.649c5.5,0 10,4.5 10,10v27.649c0,5.5 -4.5,10 -10,10z" fill="#60a686"></path><path d="M63.783,75.474h-27.649c-5.9,0 -10.7,-4.8 -10.7,-10.7v-27.649c0,-5.9 4.8,-10.7 10.7,-10.7h27.649c5.9,0 10.7,4.8 10.7,10.7v27.649c0,5.9 -4.8,10.7 -10.7,10.7zM36.134,27.825c-5.128,0 -9.3,4.172 -9.3,9.3v27.649c0,5.128 4.172,9.3 9.3,9.3h27.649c5.128,0 9.3,-4.172 9.3,-9.3v-27.649c0,-5.128 -4.172,-9.3 -9.3,-9.3z" fill="#472b29"></path><path d="M62.561,71.745h-25.205c-4.518,0 -8.193,-3.675 -8.193,-8.193v-25.206c0,-4.518 3.675,-8.193 8.193,-8.193h25.46c0.207,0 0.375,0.168 0.375,0.375c0,0.207 -0.168,0.375 -0.375,0.375h-25.46c-4.104,0 -7.443,3.339 -7.443,7.443v25.206c0,4.104 3.339,7.443 7.443,7.443h25.206c4.104,0 7.443,-3.339 7.443,-7.443v-14.115c0,-0.207 0.168,-0.375 0.375,-0.375c0.207,0 0.375,0.168 0.375,0.375v14.115c0,4.518 -3.676,8.193 -8.194,8.193zM70.38,47.543c-0.207,0 -0.375,-0.168 -0.375,-0.375v-3.025c0,-0.207 0.168,-0.375 0.375,-0.375c0.207,0 0.375,0.168 0.375,0.375v3.025c0,0.207 -0.168,0.375 -0.375,0.375zM70.38,43.005c-0.207,0 -0.375,-0.168 -0.375,-0.375v-1.513c0,-0.207 0.168,-0.375 0.375,-0.375c0.207,0 0.375,0.168 0.375,0.375v1.513c0,0.207 -0.168,0.375 -0.375,0.375z" fill="#472b29"></path><path d="M80.606,76.567c1.883,0 3.517,0 3.54,0c2.11,0 3.821,-1.674 3.821,-3.739c0,-1.802 -1.302,-3.305 -3.035,-3.66c0.02,-0.158 0.034,-0.317 0.034,-0.48c0,-2.139 -1.772,-3.873 -3.957,-3.873c-1.29,0 -2.433,0.607 -3.155,1.543c-0.185,-2.381 -2.358,-4.218 -4.9,-3.913c-1.859,0.223 -3.397,1.629 -3.739,3.431c-0.11,0.578 -0.098,1.139 0.011,1.665c-0.498,-0.525 -1.208,-0.856 -1.998,-0.856c-1.446,0 -2.627,1.102 -2.72,2.494c-0.657,-0.142 -1.371,-0.133 -2.123,0.143c-1.438,0.528 -2.462,1.853 -2.522,3.356c-0.085,2.133 1.657,3.889 3.818,3.889c0.164,0 0.741,0 0.874,0h7.934M74.129,76.567h0.36" fill="#fdfcef"></path><path d="M84.146,77.067h-3.541c-0.276,0 -0.5,-0.224 -0.5,-0.5c0,-0.276 0.224,-0.5 0.5,-0.5h3.541c1.831,0 3.32,-1.453 3.32,-3.239c0,-1.524 -1.108,-2.857 -2.635,-3.17c-0.256,-0.052 -0.429,-0.293 -0.396,-0.553c0.018,-0.137 0.03,-0.276 0.03,-0.417c0,-1.86 -1.551,-3.373 -3.457,-3.373c-1.092,0 -2.098,0.491 -2.759,1.348c-0.126,0.164 -0.34,0.231 -0.539,0.173c-0.198,-0.059 -0.339,-0.234 -0.355,-0.44c-0.079,-1.019 -0.565,-1.944 -1.37,-2.604c-0.828,-0.68 -1.884,-0.981 -2.973,-0.852c-1.646,0.197 -3.006,1.442 -3.307,3.028c-0.094,0.495 -0.09,0.99 0.01,1.471c0.045,0.219 -0.06,0.441 -0.258,0.544c-0.197,0.104 -0.44,0.064 -0.595,-0.099c-0.428,-0.452 -1.009,-0.7 -1.635,-0.7c-1.169,0 -2.145,0.891 -2.221,2.027c-0.01,0.145 -0.082,0.279 -0.198,0.366c-0.116,0.088 -0.263,0.12 -0.407,0.089c-0.637,-0.138 -1.241,-0.098 -1.845,0.124c-1.262,0.464 -2.144,1.632 -2.195,2.906c-0.035,0.875 0.283,1.708 0.895,2.344c0.635,0.661 1.496,1.025 2.423,1.025h8.808c0.276,0 0.5,0.224 0.5,0.5c0,0.276 -0.224,0.5 -0.5,0.5h-8.808c-1.185,0 -2.331,-0.485 -3.145,-1.332c-0.802,-0.835 -1.218,-1.928 -1.172,-3.077c0.066,-1.674 1.211,-3.203 2.849,-3.805c0.611,-0.224 1.244,-0.305 1.88,-0.245c0.344,-1.396 1.629,-2.424 3.136,-2.424c0.493,0 0.976,0.113 1.414,0.323c0.009,-0.241 0.036,-0.483 0.082,-0.725c0.381,-2.01 2.097,-3.586 4.17,-3.835c1.36,-0.159 2.685,0.218 3.726,1.072c0.748,0.613 1.278,1.409 1.546,2.302c0.791,-0.648 1.786,-1.007 2.843,-1.007c2.458,0 4.457,1.961 4.457,4.373c0,0.034 0,0.068 -0.001,0.103c1.764,0.555 3.003,2.188 3.003,4.038c0,2.339 -1.938,4.241 -4.321,4.241zM74.488,77.067h-0.359c-0.276,0 -0.5,-0.224 -0.5,-0.5c0,-0.276 0.224,-0.5 0.5,-0.5h0.359c0.276,0 0.5,0.224 0.5,0.5c0,0.276 -0.223,0.5 -0.5,0.5z" fill="#472b29"></path><path d="M82.439,71.264c-0.018,0 -0.036,-0.002 -0.055,-0.006c-0.135,-0.03 -0.219,-0.164 -0.189,-0.299c0.037,-0.166 0.094,-0.327 0.169,-0.479c0.604,-1.224 2.275,-1.676 3.722,-1.007c0.125,0.058 0.18,0.207 0.122,0.332c-0.058,0.125 -0.206,0.18 -0.332,0.122c-1.201,-0.556 -2.578,-0.208 -3.063,0.774c-0.058,0.116 -0.101,0.24 -0.129,0.367c-0.027,0.117 -0.13,0.196 -0.245,0.196z" fill="#472b29"></path><g fill="#472b29"><path d="M77.28,77.067h-1.107c-0.276,0 -0.5,-0.224 -0.5,-0.5c0,-0.276 0.224,-0.5 0.5,-0.5h1.107c0.276,0 0.5,0.224 0.5,0.5c0,0.276 -0.224,0.5 -0.5,0.5z"></path></g><g><path d="M52.629,60.484c-0.05,1.019 1.023,1.529 3.217,1.529v1.936h-11.463v-1.936c2.12,0 3.18,-0.51 3.18,-1.529v-10.327c0,-1.041 -1.06,-1.562 -3.18,-1.562v-1.937h8.246zM53.073,40.951c0,0.793 -0.302,1.478 -0.906,2.055c-0.604,0.577 -1.35,0.866 -2.237,0.866c-0.444,0 -0.857,-0.079 -1.239,-0.238c-0.383,-0.158 -0.715,-0.368 -0.999,-0.628c-0.284,-0.26 -0.512,-0.566 -0.684,-0.917c-0.173,-0.351 -0.259,-0.73 -0.259,-1.138c0,-0.815 0.314,-1.5 0.943,-2.055c0.628,-0.555 1.374,-0.833 2.237,-0.833c0.863,0 1.602,0.283 2.218,0.849c0.617,0.567 0.926,1.247 0.926,2.039z" fill="#fdfcee"></path><path d="M55.846,64.299h-11.463c-0.193,0 -0.35,-0.157 -0.35,-0.35v-1.936c0,-0.193 0.157,-0.35 0.35,-0.35c1.878,0 2.831,-0.396 2.831,-1.179v-10.327c0,-0.805 -0.952,-1.212 -2.831,-1.212c-0.193,0 -0.35,-0.157 -0.35,-0.35v-1.937c0,-0.193 0.157,-0.35 0.35,-0.35h8.247c0.193,0 0.35,0.157 0.35,0.35v13.826c0,0.006 0,0.011 0,0.017c-0.011,0.229 0.051,0.406 0.196,0.558c0.262,0.275 0.938,0.604 2.671,0.604c0.193,0 0.35,0.157 0.35,0.35v1.936c-0.001,0.193 -0.158,0.35 -0.351,0.35zM44.733,63.599h10.763v-1.24c-1.415,-0.037 -2.341,-0.305 -2.829,-0.817c-0.276,-0.29 -0.406,-0.648 -0.388,-1.066v-13.468h-7.546v1.242c2.111,0.062 3.181,0.703 3.181,1.907v10.327c0,1.183 -1.07,1.812 -3.181,1.874zM52.629,60.484h0.009zM49.93,44.223c-0.488,0 -0.95,-0.089 -1.373,-0.265c-0.418,-0.173 -0.789,-0.407 -1.101,-0.694c-0.315,-0.289 -0.571,-0.632 -0.762,-1.021c-0.195,-0.396 -0.295,-0.832 -0.295,-1.292c0,-0.915 0.357,-1.695 1.062,-2.317c0.692,-0.611 1.522,-0.92 2.469,-0.92c0.948,0 1.774,0.317 2.455,0.941c0.688,0.633 1.038,1.406 1.038,2.296c0,0.888 -0.341,1.665 -1.014,2.309c-0.67,0.639 -1.504,0.963 -2.479,0.963zM49.93,38.414c-0.782,0 -1.438,0.244 -2.006,0.745c-0.555,0.491 -0.825,1.077 -0.825,1.792c0,0.352 0.075,0.683 0.223,0.983c0.152,0.311 0.356,0.584 0.606,0.814c0.252,0.232 0.554,0.421 0.896,0.563c0.338,0.14 0.709,0.211 1.105,0.211c0.8,0 1.453,-0.251 1.995,-0.769c0.537,-0.514 0.797,-1.104 0.797,-1.803c0,-0.696 -0.265,-1.278 -0.811,-1.78c-0.553,-0.509 -1.202,-0.756 -1.98,-0.756z" fill="#472b29"></path></g><g fill="#472b29"><path d="M58.198,74.626c-0.027,0 -0.055,-0.007 -0.08,-0.023c-0.07,-0.044 -0.091,-0.137 -0.047,-0.207l1.962,-3.106c0.045,-0.07 0.136,-0.091 0.207,-0.047c0.07,0.044 0.091,0.137 0.047,0.207l-1.962,3.106c-0.029,0.046 -0.077,0.07 -0.127,0.07zM57.198,74.626c-0.027,0 -0.055,-0.007 -0.08,-0.023c-0.07,-0.044 -0.091,-0.137 -0.047,-0.207l1.962,-3.106c0.045,-0.07 0.136,-0.091 0.207,-0.047c0.07,0.044 0.091,0.137 0.047,0.207l-1.962,3.106c-0.029,0.046 -0.077,0.07 -0.127,0.07zM56.198,74.626c-0.027,0 -0.055,-0.007 -0.08,-0.023c-0.07,-0.044 -0.091,-0.137 -0.047,-0.207l1.962,-3.106c0.044,-0.07 0.137,-0.091 0.207,-0.047c0.07,0.044 0.091,0.137 0.047,0.207l-1.962,3.106c-0.029,0.046 -0.077,0.07 -0.127,0.07zM55.198,74.626c-0.027,0 -0.055,-0.007 -0.08,-0.023c-0.07,-0.044 -0.091,-0.137 -0.047,-0.207l1.962,-3.106c0.044,-0.07 0.137,-0.091 0.207,-0.047c0.07,0.044 0.091,0.137 0.047,0.207l-1.962,3.106c-0.029,0.046 -0.077,0.07 -0.127,0.07zM54.198,74.626c-0.027,0 -0.055,-0.007 -0.08,-0.023c-0.07,-0.044 -0.091,-0.137 -0.047,-0.207l1.962,-3.106c0.044,-0.07 0.137,-0.091 0.207,-0.047c0.07,0.044 0.091,0.137 0.047,0.207l-1.962,3.106c-0.029,0.046 -0.077,0.07 -0.127,0.07zM53.198,74.626c-0.027,0 -0.055,-0.007 -0.08,-0.023c-0.07,-0.044 -0.091,-0.137 -0.047,-0.207l1.962,-3.106c0.044,-0.07 0.137,-0.091 0.207,-0.047c0.07,0.044 0.091,0.137 0.047,0.207l-1.962,3.106c-0.029,0.046 -0.077,0.07 -0.127,0.07zM52.198,74.626c-0.027,0 -0.055,-0.007 -0.08,-0.023c-0.07,-0.044 -0.091,-0.137 -0.047,-0.207l1.297,-2.053c0.044,-0.07 0.137,-0.091 0.207,-0.047c0.07,0.044 0.091,0.137 0.047,0.207l-1.297,2.053c-0.029,0.046 -0.077,0.07 -0.127,0.07zM51.198,74.626c-0.027,0 -0.055,-0.007 -0.08,-0.023c-0.07,-0.044 -0.091,-0.137 -0.047,-0.207l0.814,-1.289c0.045,-0.071 0.137,-0.09 0.207,-0.047c0.07,0.044 0.091,0.137 0.047,0.207l-0.814,1.289c-0.029,0.046 -0.077,0.07 -0.127,0.07z"></path></g></g></g></svg>